# AST/ASF file generated using VICON BodyLanguage
# -----------------------------------------------
:version 1.10
:name VICON
:units
  mass 1.0
  length 0.45
  angle deg
:documentation
   .ast/.asf automatically generated from VICON data using
   VICON BodyBuilder and BodyLanguage model FoxedUp or BRILLIANT.MOD
:root
   order TX TY TZ RX RY RZ
   axis XYZ
   position 0 0 0  
   orientation 0 0 0 
:bonedata
  begin
     id 1 
     name lhipjoint
     direction 0.722297 -0.617336 0.311742 
     length 2.6635 
     axis 0 0 0  XYZ
  end
  begin
     id 2 
     name lfemur
     direction 0.34202 -0.939693 0  
     length 7.39349  
     axis 0 0 20  XYZ
    dof rx ry rz
    limits (-160.0 20.0)
           (-70.0 70.0)
           (-60.0 70.0)
  end
  begin
     id 3 
     name ltibia
     direction 0.34202 -0.939693 0   
     length 7.36294   
     axis 0 0 20   XYZ
    dof rx
    limits (-10.0 170.0)
  end
  begin
     id 4 
     name lfoot
     direction 0.104879 -0.288152 0.951824   
     length 2.16981   
     axis -90 7.62852e-016 20   XYZ
    dof rx rz
    limits (-45.0 90.0)
           (-70.0 20.0)
  end
  begin
     id 5 
     name ltoes
     direction 1.53586e-011 -4.21895e-011 1   
     length 1.08218   
     axis -90 7.62852e-016 20   XYZ
    dof rx
    limits (-90.0 20.0)
  end
  begin
     id 6 
     name rhipjoint
     direction -0.75102 -0.589393 0.297631   
     length 2.78977  
     axis 0 0 0  XYZ 
  end
  begin
     id 7 
     name rfemur
     direction -0.34202 -0.939693 0   
     length 7.46076   
     axis 0 0 -20   XYZ
    dof rx ry rz
    limits (-160.0 20.0)
           (-70.0 70.0)
           (-70.0 60.0)
  end
  begin
     id 8 
     name rtibia
     direction -0.34202 -0.939693 0   
     length 7.31726   
     axis 0 0 -20   XYZ
    dof rx
    limits (-10.0 170.0)
 end
 begin
     id 9 
     name rfoot
     direction -0.107991 -0.296704 0.948844   
     length 2.09388  
     axis -90 -7.62852e-016 -20   XYZ
    dof rx rz
    limits (-45.0 90.0)
           (-20.0 70.0)
  end
  begin
     id 10 
     name rtoes
     direction -1.53559e-011 -4.21911e-011 1   
     length 1.04433   
     axis -90 -7.62852e-016 -20   XYZ
    dof rx
    limits (-90.0 20.0)
  end
  begin
     id 11 
     name lowerback
     direction 0.0165164 0.98272 0.184358   
     length 1.71896   
     axis 0 0 0   XYZ
    dof rx ry rz
    limits (-20.0 45.0)
           (-30.0 30.0)
           (-30.0 30.0)
  end
  begin
     id 12 
     name upperback
     direction -0.00887249 0.992297 0.123566   
     length 1.71504   
     axis 0 0 0   XYZ
    dof rx ry rz
    limits (-20.0 45.0)
           (-30.0 30.0)
           (-30.0 30.0)
  end
  begin
     id 13 
     name thorax
     direction -0.0157026 0.998908 0.0440032   
     length 1.77022   
     axis 0 0 0   XYZ
    dof rx ry rz
    limits (-20.0 45.0)
           (-30.0 30.0)
           (-30.0 30.0)
  end
  begin
     id 14 
     name lowerneck
     direction -0.0238856 0.998137 0.0561411   
     length 1.89341   
     axis 0 0 0   XYZ
    dof rx ry rz
    limits (-20.0 45.0)
           (-30.0 30.0)
           (-30.0 30.0)
  end
  begin
     id 15 
     name upperneck
     direction 0.0276574 0.952253 -0.304056   
     length 1.86999   
     axis 0 0 0   XYZ
    dof rx ry rz
    limits (-20.0 45.0)
           (-30.0 30.0)
           (-30.0 30.0)
  end
  begin
     id 16
     name head
     direction 0.00800083 0.994258 -0.106712  
     length 1.91492  
     axis 0 0 0   XYZ
    dof rx ry rz
    limits (-20.0 45.0)
           (-30.0 30.0)
           (-30.0 30.0)
  end
  begin
     id 17 
     name lclavicle
     direction 0.97203 0.225407 0.06595  
     length 3.34889  
     axis 0 0 0   XYZ
    dof ry rz
    limits (-20.0 10.0)
           (0.0 20.0)
  end
  begin
     id 18 
     name lhumerus
     direction 1 -4.48973e-011 2.20267e-027   
     length 4.85645   
     axis 180 -30 -90   XYZ
    dof rx ry rz
    limits (-60.0 90.0)
           (-90.0 90.0)
           (-90.0 90.0)
  end
  begin
     id 19
     name lradius
     direction 1 -4.4897e-011 4.60472e-027   
     length 2.79874   
     axis 180 -30 -90   XYZ
    dof rx
    limits (-10.0 170.0)
  end
  begin
     id 20
     name lwrist
     direction 1 -4.48952e-011 1.14928e-026   
     length 1.39937   
     axis -6.29373e-015 90 90   XYZ
    dof ry
    limits (-180.0 0.0)
 end
  begin
     id 21 
     name lhand
     direction 1 -4.48967e-011 2.29886e-026   
     length 0.573398   
     axis -1.46689e-014 90 90   XYZ
    dof rx rz
    limits (-90.0 90.0)
           (-45.0 45.0)
  end
  begin
     id 22 
     name lfingers
     direction 1 -4.48955e-011 4.59726e-026   
     length 0.462289   
     axis -2.93383e-014 90 90   XYZ
    dof rx
    limits (0.0 90.0)
  end
  begin
     id 23
     name lthumb
     direction 0.707107 -6.34866e-011 0.707107   
     length 0.663757   
     axis -90 45 5.69224e-014   XYZ
    dof rx rz
    limits (-45.0 45.0)
           (-45.0 45.0)
  end
  begin
     id 24 
     name rclavicle
     direction -0.981571 0.157346 0.108443   
     length 3.35257  
     axis 0 0 0   XYZ 
    dof ry rz
    limits (-10.0 20.0)
           (-20.0 0.0)
  end
  begin
     id 25 
     name rhumerus
     direction -1 -4.48967e-011 8.58308e-029  
     length 4.67018   
     axis 180 30 90   XYZ
    dof rx ry rz
    limits (-90.0 60.0)
           (-90.0 90.0)
           (-90.0 90.0)
  end
  begin
     id 26 
     name rradius
     direction -1 -4.48958e-011 4.52548e-027   
     length 2.65534   
     axis 180 30 90   XYZ
    dof rx
    limits (-10.0 170.0)
  end
  begin
     id 27 
     name rwrist
     direction -1 -4.48977e-011 1.14952e-026   
     length 1.32767   
     axis -6.29373e-015 -90 -90   XYZ
    dof ry
    limits (-180.0 0.0)
  end
  begin
     id 28
     name rhand
     direction -1 -4.48924e-011 2.29804e-026   
     length 0.594069   
     axis -1.46689e-014 -90 -90   XYZ
    dof rx rz
    limits (-90.0 90.0)
           (-45.0 45.0)
  end
  begin
     id 29
     name rfingers
     direction -1 -4.48998e-011 4.59888e-026   
     length 0.478954   
     axis -2.93383e-014 -90 -90   XYZ
    dof rx
    limits (0.0 90.0)
  end
  begin
     id 30
     name rthumb
     direction -0.707107 -6.34933e-011 0.707107   
     length 0.687685   
     axis -90 -45 -5.69224e-014   XYZ
    dof rx rz
    limits (-45.0 45.0)
           (-45.0 45.0)
  end
:hierarchy
  begin
    root lhipjoint rhipjoint lowerback
    lhipjoint lfemur
    lfemur ltibia
    ltibia lfoot
    lfoot ltoes
    rhipjoint rfemur
    rfemur rtibia
    rtibia rfoot
    rfoot rtoes
    lowerback upperback
    upperback thorax
    thorax lowerneck lclavicle rclavicle
    lowerneck upperneck
    upperneck head
    lclavicle lhumerus
    lhumerus lradius
    lradius lwrist
    lwrist lhand lthumb
    lhand lfingers
    rclavicle rhumerus
    rhumerus rradius
    rradius rwrist
    rwrist rhand rthumb
    rhand rfingers
  end

#!OML:ASF E:\pregnant2\Project 1\Capture day 1\Session 1\pregnant2.ASF
:FULLY-SPECIFIED
:DEGREES
709
root 8.32287 24.6712 -18.9596 -149.815 -14.3271 179.577
lowerback 1.09708 -4.95995 -9.68775
upperback -19.0106 -10.7368 12.7062
thorax -17.9686 -3.68058 23.1912
lowerneck -5.56165 -0.536311 -2.21852
upperneck 40.4407 30.8549 -23.7355
head 24.9539 14.786 -3.17445
rclavicle -8.09054e-014 5.40694e-014
rhumerus -57.8803 39.8173 -85.1774
rradius 45.3807
rwrist -2.21901
rhand -11.3892 -18.6617
rfingers 7.12502
rthumb 14.6455 -48.1245
lclavicle -8.09054e-014 5.40694e-014
lhumerus -62.3357 26.839 82.2107
lradius 38.2149
lwrist -0.158796
lhand -10.3771 25.9572
lfingers 7.12502
lthumb 15.6205 55.3466
rfemur -55.8204 7.20045 20.1198
rtibia 39.2664
rfoot -11.9582 -13.3098
rtoes 6.27066
lfemur -53.4251 0.484028 -20.6856
ltibia 76.7108
lfoot 4.34828 8.58822
ltoes -14.3269
710
root 8.34224 24.7006 -19.0032 -149.873 -14.8872 179.569
lowerback 1.15027 -5.01307 -9.77119
upperback -19.064 -10.8262 12.7642
thorax -18.0109 -3.68991 23.3542
lowerneck -5.53448 -0.592969 -2.28865
upperneck 40.291 31.1531 -23.9517
head 25.0492 14.9453 -3.15485
rclavicle -1.2106e-013 -3.18055e-015
rhumerus -57.3993 39.9033 -84.841
rradius 45.3203
rwrist -2.34643
rhand -11.4575 -18.8137
rfingers 7.12502
rthumb 14.5797 -48.2813
lclavicle -1.2106e-013 -3.18055e-015
lhumerus -62.4914 27.0691 82.1144
lradius 38.1984
lwrist -0.113621
lhand -10.4788 25.9447
lfingers 7.12502
lthumb 15.5225 55.3416
rfemur -55.2292 7.16639 20.2439
rtibia 38.7181
rfoot -12.0194 -13.7668
rtoes 6.55245
lfemur -54.2251 0.767796 -20.9365
ltibia 77.747
lfoot 3.68443 8.97081
ltoes -13.73
711
root 8.36134 24.7271 -19.0462 -149.935 -15.4655 179.559
lowerback 1.22503 -5.06335 -9.84918
upperback -19.1357 -10.9202 12.8197
thorax -18.0924 -3.69536 23.5259
lowerneck -5.46013 -0.665533 -2.36591
upperneck 40.1388 31.4608 -24.1831
head 25.1402 15.1196 -3.14019
rclavicle 2.26615e-014 -8.26944e-014
rhumerus -56.9773 39.9867 -84.5373
rradius 45.2322
rwrist -2.42509
rhand -11.5637 -18.9591
rfingers 7.12502
rthumb 14.4774 -48.434
lclavicle 2.26615e-014 -8.26944e-014
lhumerus -62.7018 27.2844 82.0099
lradius 38.1902
lwrist -0.0809488
lhand -10.5923 25.885
lfingers 7.12502
lthumb 15.4132 55.2904
rfemur -54.6659 7.13286 20.3684
rtibia 38.2277
rfoot -12.1098 -14.2448
rtoes 6.83341
lfemur -54.9954 1.03536 -21.1846
ltibia 78.6108
lfoot 2.93243 9.35459
ltoes -13.2345
712
root 8.38034 24.7505 -19.0886 -150.005 -16.0482 179.542
lowerback 1.30329 -5.11756 -9.95288
upperback -19.1786 -11.0095 12.8731
thorax -18.1349 -3.69832 23.6997
lowerneck -5.44087 -0.732972 -2.41662
upperneck 39.966 31.7722 -24.4281
head 25.2524 15.2911 -3.12942
rclavicle 4.31363e-014 -3.81667e-014
rhumerus -56.4956 40.0629 -84.2198
rradius 45.1143
rwrist -2.47346
rhand -11.698 -19.1145
rfingers 7.12502
rthumb 14.348 -48.5987
lclavicle 4.31363e-014 -3.81667e-014
lhumerus -62.8596 27.4989 81.917
lradius 38.1816
lwrist -0.0711054
lhand -10.6682 25.8335
lfingers 7.12502
lthumb 15.3401 55.2445
rfemur -54.1301 7.11568 20.4761
rtibia 37.8001
rfoot -12.2312 -14.7516
rtoes 7.12323
lfemur -55.7208 1.28956 -21.4401
ltibia 79.2944
lfoot 2.11174 9.71117
ltoes -12.849
713
root 8.39895 24.7706 -19.1313 -150.079 -16.6387 179.525
lowerback 1.39119 -5.16698 -10.0551
upperback -19.249 -11.1052 12.923
thorax -18.2199 -3.69813 23.8836
lowerneck -5.33674 -0.82164 -2.47444
upperneck 39.7746 32.078 -24.708
head 25.3346 15.479 -3.14147
rclavicle -3.83654e-014 3.49861e-014
rhumerus -56.1242 40.1408 -83.9601
rradius 44.9873
rwrist -2.48163
rhand -11.8403 -19.2667
rfingers 7.12502
rthumb 14.2109 -48.7606
lclavicle -3.83654e-014 3.49861e-014
lhumerus -63.1235 27.704 81.7918
lradius 38.201
lwrist -0.0774895
lhand -10.7193 25.7766
lfingers 7.12502
lthumb 15.2909 55.1913
rfemur -53.6254 7.11191 20.5775
rtibia 37.4411
rfoot -12.3948 -15.2819
rtoes 7.41518
lfemur -56.4066 1.53063 -21.6956
ltibia 79.8023
lfoot 1.25454 10.0331
ltoes -12.6237
714
root 8.41676 24.7874 -19.1737 -150.165 -17.2358 179.511
lowerback 1.48484 -5.2133 -10.1357
upperback -19.3529 -11.2093 12.9618
thorax -18.3564 -3.69864 24.0559
lowerneck -5.10365 -0.931547 -2.55457
upperneck 39.5757 32.3609 -25.0047
head 25.3546 15.6797 -3.17543
rclavicle -6.75868e-015 -9.54166e-015
rhumerus -55.8997 40.2211 -83.7929
rradius 44.8613
rwrist -2.46168
rhand -11.968 -19.4315
rfingers 7.12502
rthumb 14.0878 -48.9339
lclavicle -6.75868e-015 -9.54166e-015
lhumerus -63.5329 27.8845 81.6109
lradius 38.2633
lwrist -0.0827359
lhand -10.7556 25.7063
lfingers 7.12502
lthumb 15.256 55.1238
rfemur -53.144 7.10685 20.6872
rtibia 37.1549
rfoot -12.6035 -15.8164
rtoes 7.69363
lfemur -57.0432 1.75891 -21.9478
ltibia 80.1348
lfoot 0.370139 10.3144
ltoes -12.4377
715
root 8.43495 24.8005 -19.2148 -150.228 -17.8551 179.49
lowerback 1.58532 -5.26085 -10.219
upperback -19.4721 -11.322 12.9992
thorax -18.5148 -3.69831 24.2377
lowerneck -4.87731 -1.04477 -2.64553
upperneck 39.3816 32.6368 -25.2907
head 25.3725 15.8762 -3.20238
rclavicle 6.0033e-014 9.22361e-014
rhumerus -55.7177 40.3088 -83.6579
rradius 44.7329
rwrist -2.41797
rhand -12.0992 -19.5909
rfingers 7.12502
rthumb 13.9614 -49.1021
lclavicle 6.0033e-014 9.22361e-014
lhumerus -63.9851 28.0699 81.4057
lradius 38.3531
lwrist -0.100822
lhand -10.7678 25.6357
lfingers 7.12502
lthumb 15.2442 55.054
rfemur -52.7317 7.09396 20.7952
rtibia 36.9481
rfoot -12.8566 -16.3658
rtoes 7.97986
lfemur -57.6888 1.96361 -22.2043
ltibia 80.3002
lfoot -0.482776 10.535
ltoes -12.4356
716
root 8.45345 24.81 -19.2544 -150.273 -18.4797 179.454
lowerback 1.67799 -5.31121 -10.3025
upperback -19.6265 -11.4528 13.0226
thorax -18.7105 -3.70216 24.4129
lowerneck -4.54922 -1.16949 -2.76243
upperneck 39.1876 32.8805 -25.5741
head 25.326 16.074 -3.24319
rclavicle 6.32135e-014 -3.18055e-014
rhumerus -55.6665 40.4029 -83.6222
rradius 44.6048
rwrist -2.33792
rhand -12.2605 -19.7289
rfingers 7.12502
rthumb 13.806 -49.2508
lclavicle 6.32135e-014 -3.18055e-014
lhumerus -64.538 28.2343 81.1447
lradius 38.47
lwrist -0.105257
lhand -10.78 25.5779
lfingers 7.12502
lthumb 15.2324 54.9971
rfemur -52.3837 7.08807 20.8821
rtibia 36.8205
rfoot -13.1593 -16.9319
rtoes 8.3006
lfemur -58.3297 2.15147 -22.4812
ltibia 80.2965
lfoot -1.30188 10.7139
ltoes -12.5754
717
root 8.47278 24.8162 -19.2922 -150.286 -19.1173 179.401
lowerback 1.7715 -5.36318 -10.3949
upperback -19.8138 -11.6015 13.0398
thorax -18.9445 -3.70667 24.601
lowerneck -4.14971 -1.31443 -2.92643
upperneck 39.0214 33.069 -25.8296
head 25.2254 16.2538 -3.28781
rclavicle 3.26007e-014 2.22639e-014
rhumerus -55.7158 40.5154 -83.6582
rradius 44.4807
rwrist -2.22947
rhand -12.4438 -19.8486
rfingers 7.12502
rthumb 13.6293 -49.3824
lclavicle 3.26007e-014 2.22639e-014
lhumerus -65.1636 28.3753 80.8616
lradius 38.6219
lwrist -0.0801773
lhand -10.7918 25.535
lfingers 7.12502
lthumb 15.2211 54.9551
rfemur -52.1141 7.08933 20.9464
rtibia 36.7709
rfoot -13.5087 -17.5205
rtoes 8.65823
lfemur -58.9811 2.32013 -22.7772
ltibia 80.1267
lfoot -2.08833 10.8567
ltoes -12.8909
